<mxfile host="app.diagrams.net" modified="2021-07-01T12:28:09.940Z" agent="5.0 (Windows NT 10.0; WOW64) AppleWebKit/537.36 (KHTML, like Gecko) Chrome/91.0.4472.124 Safari/537.36" etag="emkKxjoDA62t602Ilnk1" version="14.8.2" type="github">
  <diagram id="lNHFaLl03xAyYoJdllFz" name="Page-1">
    <mxGraphModel dx="1108" dy="482" grid="1" gridSize="10" guides="1" tooltips="1" connect="1" arrows="1" fold="1" page="1" pageScale="1" pageWidth="850" pageHeight="1100" math="0" shadow="0">
      <root>
        <mxCell id="0" />
        <mxCell id="1" parent="0" />
        <mxCell id="EZz8pJFMeLSITCW5bmN--2" value="" style="shape=image;verticalLabelPosition=bottom;labelBackgroundColor=#ffffff;verticalAlign=top;aspect=fixed;imageAspect=0;image=data:image/png,iVBORw0KGgoAAAANSUhEUgAAAggAAAEECAYAAABN1syFAAAgAElEQVR4XuydB3hUxd6Hf9s3vfcKoYQSQi+hQ+iIWK5i5VoRRREREWzYle9iQbGgqIgFFVQ6ofdOgAQSEtJ772X7fs/MJqEYZDebbJLNf55Hgc3UdybnvGdmzqwAgB4UiAARIAJEgAgQASJwDQEBCQKNByJABIgAESACROBGAiQINCaIABEgAkSACBCBfxAgQaBBQQSIABEgAkSACJAg0BggAkSACBABIkAEbk2AZhBuzYhiEAEiQASIABHocARIEDpcl1ODiQARIAJEgAjcmgAJwq0ZUQwiQASIABEgAh2OAAlCh+tyajARIAJEgAgQgVsTIEG4NSOKQQSIABEgAkSgwxEgQehwXU4NJgJEgAgQASJwawIkCLdmRDGIABEgAkSACHQ4AiQIHa7LqcFEgAgQASJABG5NgATh1owoBhEgAkSACBCBDkeABKHDdTk1mAgQASJABIjArQmQINyaEcUgAkSACBABItDhCJAgdLgupwYTASJABNo3AYFEBPvQAAjFwqY3RA9UJ+dCU1nb9DysPCUJgpV3MDWPCBABImBtBLzvikDg7Eizm1V2OhGJb683Ox9rzYAEwVp7ltpFBIgAEbBSAv6zx8P3ruFmt64yPhPxi783Ox9rzYAEwVp7ltpFBIgAEbBSAiQIlulYEgTLcKZSiAARIAJEoJkIkCA0E8hbZEOCYBnOVAoRIAJEgAg0EwEShGYCSYJgGZBUChEgAkSACFiGAAmCZTjTDIJlOFMpRIAIEAEi0EwEWloQ3ALDYevkiaKMWNSW5wECIQLDJiLr0j5IZLZw79QfOXH74RM6CmKJDW+VSlGJvMSjsHP1h7NPd4glMlSX5aI4/QL/uV+vcRAKRchPPg1ldQm8u0ZAauOIrEt7oNNqIJbawKf7SGjUtci9fJinCegzCQKw2zRQU5GPkqxL8Os5Ftlx+6HTqOHq3xN2Lv4QioQoSDmL2oqCZiJsyIYEoVlxUmZEgAgQASLQ0gRaUhAEAiE6DbgdpbkJsHf1R2bsLkAoQtch/0HK6b8gsXGAb+hIpJ7ZBInMjssCu8EXZ1yAVq1E50F3oDDtHJTVpfAKGYzKokyU5sTxz7VqFSqL01GRn4KA3pEQSWRIPr2R3+xd/HpAbu8OG0cPpJ/fDq1aAamNE3x7jEJZbiKqSjKh12nReeBMpJzZBDsXH7gH9UVRegw0qhroNCooqoqbFT0JQrPipMyIABEgAkSgpQm0pCDYuwXC1a8n8pKO85s4kwK9QNCoIOj1Onh1jYBeq0ZBymk+C8DkIvnURui0ajj79oC9iy+y4w9wQSjNSYSzV2cUZ16Eg0cwbBzcGwTBv/d4VBZlQGbvyoWhKC2aYwzuNw2F6RdQXZLFhaJeENwDwwGBAPlJJ1oMNwlCi6GljIkAESACRKAlCLSkILCpf/Z0rlHWQGrrhMzYPfzJvOuwe5AWvRVimR18ug1H6tm/odfrrxMEfgMfMBOp57ZCo6yGd7cICAQi5F05xgUhI2YXAntHQqNWojjrEny6DjUIglaLLoPvhlpVA6FIzJcV6vO/mSCwZQxWz4yYKEDPKPP/NWsgQWhWnJQZESACRIAItDSBlhSETgNnoij9AhQVhXAN6AWpjTMyY6Pg13McZHbOEAgEqChIQ2HaWd7Ma2cQ2L89QwbDwS2ALzuwm3b6hSjodZoGQXALCIOtowfSzm1DyOC7uCA4eXWFg3sQci8fgkhqA/9e4/nMhU6ruukMAss/sM9EPmvBlh6KM2NRnp/crOhJEJoVJ2VGBIgAESACLU2gJQVBZucKVW05v+kKxTJIZXZQVJdCIBTyGQW9TgdVTVlDEyUye+ih5zMG9YFtPhSIxFDXVvKlBrbdj8mFqrYCIrEUQqEYKkUV5HYuUNSUguUBvR5qZRWPyz5nmx5ZWlamRlXL9xgwOZHauvDy2fKGQCjiGx3ZUoOyugzQ65oVPQlCs+KkzIgAESACRKClCbSkILR03dtT/iQI7am3qK5EgAgQASIAEgTLDAISBMtwplKIABEgAkSgmQiQIDQTyFtkQ4JgGc5UChEgAkSACDQTARKEZgJJgmAZkFQKESACRIAIWIYACYJlONMMgmU4UylEgAgQASLQTAQ8JvVHp2emm51b0YFYpHz0l9n5WGsGJAjW2rPULiJABIiAFROQuDtCKBE3vYV6PVQF7HXG5n01sOkVanspSRDaXp9QjYgAESACRIAItDoBEoRW7wKqABEgAkSACBCBtkeABKHt9QnViAgQASJABP6FgFwCjA8DbKRNx6TVAccSgPzypudh7SnNFgR29CMFIsC+tIQCESACRMASBF67G3jrXvNL2hcLjH/L/HysNQezBIHLgdQJ+sDpgFBirYyoXf9GoDoHguxdPAZJAg0VIkAELEHg/QeAl2eaXxKbQRj+qvn5WGsOTRaE+pkD/dAVgM8oa+VD7boVAZ0Wgk1DSRBuxYl+TgSIQLMRIEFoNpT/mpGZgiCAfvgqwHOQZWpLpbQ9Auwbxf5mgmBYYqBZhLbXRVQjImBtBEgQLNOj5gvCiFWABwmCZbqrDZbCBWFYnSDoSRDaYBdRlYiAtREgQbBMjzZJEK5uTBRCP+JzEgTL9FXbLIUEoW32C9WKCFgxARIEy3QuCYJlOFtvKUwQNg1jawt8FoGWGKy3q6llRKCtEGhRQRAI0XnADH4tS4veCr1ei8DwKRBLZMiI2QWNqgYSuQP8eoyBRq1A1sXdHItHcH/YuwUgIyYKUhsnuAf2QebF3XD2CeWfs3i+PUajtqIApdnxEEnkCAqfzNOyNBpVLezdAuHs3RVZl/a2CdQkCG2iG9pxJUgQ2nHnUdWJQPsk0NKC0HXoPaitLEJNeR6qi7Pg2WUwZDZOSDu/HRplNby7DYeyqgQufj2QGbsLakUVvEKGQGbvCjbDXpR+AR5BfZF2fhtc/XvBwb0T0s9vRUDYBJ5ncUYsbJy84N1lKD/quSj9HKpKsuDoEQwX3x5Iv7CjTXQMCUKb6IZ2XAkShHbceVR1ItA+CVhCEPKTT8MtoDeUNeWoLs2Ce1A/pJ/fDp1Gjc4DZyI1ejN8e4xCeX4yKvKTuSCw2QYHtyCUF6TA3sX3XwXBp9sIqBRV0GmUsHXxQfalfSQI7XM4Uq1vSoAEgQYHESACFiZgCUFgMhDYZzKfEWAzAWyZgX0mkdrCv9c4KGvLIZbaQlldhuy4fVwQtFoVassL4NNtOJ9pYOkcPUPgHhiGtHPbENA7EuWFqagoSOGSoVHW8Pe/pHJ7pJ7dDFsnT7j49UTmxT2cqE6jsjDZ64ujGYRWxW8FhZMgWEEnUhOIQPsi0NKC0GXwXUg6+QeC+k2DSCRFypm/0XnQHXyvgItvKF9KyIrdDZHEFp36T+M3f7aUoNOq+PJCQNhECAQiZMTsgFhmh4DeEyASS7lAsJu/zNYZ7kHhSD+3jYMP6jsNJZmxgEAAr5DBDZ3B6tCagQShNelbQ9kkCNbQi9QGItCuCLSoIAAQCEXQs0PgBELORc+uc/WfCYX82Bf2GQuGz3V8pqEhLksnEPA8eBz2M/aZXsc3P9b/u+HnQpHhZzyuoUyeV1361uocEoTWIm8t5ZIgWEtPUjuIQLsh0NKC0G5AtHBFSRBaGLDVZ0+CYPVdTA0kAm2NAAmCZXqEBMEynK23FBIE6+1bahkRaKMESBAs0zEkCJbhbL2lkCBYb99Sy4hAGyVAgmCZjiFBsAxn6y2FBMF6+5ZaRgTaKIH37wdevsP8ytHXPf87QxIE88dYx86BBKFj9z+1ngi0AoGHRgM/zjO/4G/3Ak98ZX4+1poDCYK19qyl2kWCYCnSVA4RIALXEHC0AcSipiNhXx9TXgPoDN9UT6ERAiQINCzMI0CCYB4/Sk0EiAARaKMESBDaaMe0m2qRILSbrqKKEgEiQARMIUCCYAotivtPAiQINCqIABEgAlZJgATBKrvVgo0iQbAgbCqKCBABImA5AiQIlmNtnSWRIFhnv1KriAAR6PAErE4QnG1FqKjVWnxnKgNpLxOiUmn4Ao/WDOx7QeRiAWrVFtieS4LQml1NZRMBIkAEWoxAqwuCg1yI9x/0g7ezBCqNHuuPlGDzmXKjGyyTCODrIkFqgeF7s9O+7I23fs/Fd/uLjc6jOSL+d6QrPnosAK7/vdBodmKRAIHuUqTkK5ujuH/kEeAuQUmlFtVKHdY+HYxhoXbo9tylFinrukxJEFqeMZVABIgAEWgFAq0qCPZyIRJW9kZ+mRpbz5bxr8AsKFXjs6hC2EiF6B9kg+QCJfLKNRAJgRAPGVIKVRja1RZxWQqUVGtxez8nrJ4XhFFLE5BcqMKornY4l1HLvmkTdjL2lZuAu70YMVm1EECAzu5SJBYYbtJdPKTIKdegRqWDrVSIsAAbpBcqkVehgVAAdPWUISFfybJAd28Zz1+j06OblwzuDhLEZNWgstYwY2ArEWBQkC0OJ1fzdFcKlBjaxQ5J+UoUVGgwrIsdopZ1xeAX43k+aq0eQW5SuDuIEZtVy+WIBfYZmwVJL1LxP9OKVejmKUNuuRqejmLe/hAvGRzlIl5XW5kQCo0e+5d1w8otBdgcXQaNVo9AVwmiMxWcW2d3GZhIxeUqoNMBXg5i3j47GxFkIsPn7J3gJgUShCZho0REgAgQgbZOoFUF4bYBTli/sDO8Hr2AKsXVqXk/FwlSvuyNy1kKdPKW4blvMvmsQt53fXD4UhWc7IQI9ZcjZO5FbF3SBX1DbBGfqcDYNxKxZ1lXvP17Ljp7yTB/micKytUI9pJh+cY8/Hi4BAmf9YLjQ+chEgqQuToMs1akILNIhePvh6KgTINO3lLM/iwVe85XonBtOGSzzkEqEkDxe38EzYnF/REumDfNk6eRS4To/1I87+P+nW2xYWFn9H4+DpW/9MOfR0sQ5CVDryAbhM2/hC+eCERkP0dczlQg8q0rmBvpjgfHuqGwQgM2i9JrQRymhDtiw+LOSMxW8iWCCqUOEUsTUL6uLzILVdgXU4l9Fyvw04JOuJhei6xCFRzsxNgeXY537vdFYbkGa/cVIbdYjbtGuGLi24n4dm4gJvV1Qo1Sh5xiNSa9m4TlD/lhaj9HlFVr0TPIBvevSMHfJsza0AxCW/+1pvoRASJABMwn0KqC8Mqd3rg3wgV9XjTcZOvD+w/4IcBVggc/S0OfQBvser0res6PQ+HaPvB6OAZFNRqc/rAHVmzKw5UcJTa/0gV+T8Tw5Of+16NBEO4b6YIBL11G/2AbbFgUguGvJDQqCLPHuqFaocNz32XC21GM7O/C4TP7PDLX9PmHIHz1RADOpdZi+aZ8VCq0DU/e1wpC9fp+6DonFklFKuxb1o0vm2w/V47Yj3vB5eHzfEai6ud+CJ13ESU1WqR+GYa+z17CsRU9MPfrDOw4V44F070wa4RLgyCMfjUBZ1NrkPFVbyz6Phu/nSzF5pdCYCsXIfKtRJz9IBTL1udiy/lyzB3nzgVh6bos/P1KF/g+bmCT9lUYnvo6HVP7OfHZiFmfpGJIFzt8/0wQei6Ia9poohmEpnGjVESACBCBNk6gVQXhv6Pd8OnjAfD47wWotFfnuLcv7oK1B4vx24lSSIUCVP3aD96PxiBnTRjks85xpOyJ/+uoQsSm1d5UECLDHTH5nSt8SeDwe6HouzCuUUF4ZoonziZVY/nmfEjEApT92BcDFsThwqc9DYIgFkDxm2EGoaRSg2+fCsTUAc44nVyNyDev/GMGoeKXvhD/J5p/vvv1rvj7VBk2nS5rEARHmRClP/VFSq5hqUMuFWL+6kx8+lQAHvo0FQcuVeHRsW6YM8mjQRC6Pn0R+eVqqP/oD9m90dDogOcmeGDGMJebCsLqXYVYcJsnhr2SwMtJ/KwXFv2YjfFhDpCIBJj7TQYXsM1LQhA892LThioJQtO4USoiQASIQBsn0KqC4OUkRvY3fXAorhLz12RCCAEGhNhCKAReuN0bo15NwPypnpjczxGT3k5qVBCOJ1bhzPIeCH8hjq/bs7/XLzFE9nHE5HevCkLwUzEoW9cXI5cmIL9Cg/jPemHyW1f4DXNCuCNuez8Zs0e6YMFMb3SaexEla8Mx470kFFdpceGTnlwQevnIcSqlGj7OEhz7IBROD503ShD+PFGG1K96o9+COCTmq5D0eS+8vzEX64+V8v0PbJ/Fhf/1xKkr1XjzjxxseDEEAiGuEwS2DyHqlS5IK1Bi8U/ZOPxud+SXabkgRC3twtv/8i85uHewM59BYEslCZ/3wpilicivVOPSyl4Y/0YiHhrtRoLQxn8xqXpEgAgQgdYm0KqCwBrf20+O9x/057vu2Ua9V37Kwh8ny/D+LF/cO8oNV3IUePzLdOSWqhH9vx7o/LThSXfzyyH46WAJ/jpVhuUP+uE/w13Qd2E8fnm+Ez7eko8gdylG9HTAgytT+Sa9v5Z0RvjCeDwV6Y637vPF0fgqdPOX47FV6YjNqOXr8v+JcEFmkZrvS7iSr8Sc8e546wFfHIuvxsCuthjy8mXcH+GKBbd7QiwUYNW2Qrz1Zy6vT1igDVbPCcS4ZVdw+bNeCHoqln/+6/OdEHW+AusOFuPNe33xWKQ7BiyKR3dfOZbd44NegTYoKNeg5/OXEOAiweq5QXCwESI2Q4GwIDlGv56I+E97YcTSBBRUahAeZIPfFnaGjUSIH3YXITRIjns/TkVENzv88GwnbDxWgvgMBaYNduKf/2eIM5bP9uebFN/dkIdVUYV4e5Yvr/+SX7LRw0+OH54JxpCll5s2FmkGoWncKBURIAJEoI0TaHVBaON8LFq9x8a5Ib9Mw2/eL93hhV3nKrBsg0FA2mwgQWizXUMVIwJEgAiYQ4AEwRx6zZz26ycDER5sC/Y+x9H4Sixal93MJbRAdiQILQCVsiQCRIAItD4BEoTW74P2XQMShPbdf1R7IkAEiMBNCJAg0NAwjwAJgnn8KDURIAJEoI0SIEFoox3TbqpFgtBuuooqSgSIABEwhQAJgim0KO4/CZAg0KggAkSACFglARIEq+xWCzaKBMGCsKkoIkAEiIDlCJAgWI61dZZEgmCd/UqtIgJEoMMTIEHo8EPATAAkCGYCpOREgAgQgbZJgAShbfZL+6kVCUL76SuqKREgAkTABAIkCCbAoqiNECBBoGFBBIgAEbBKAiQIVtmtFmwUCYIFYVNRRIAIEAHLESBBsBxr6yyJBME6+5VaRQSIQIcnQILQ4YeAmQBIEMwESMmJABEgAm2TAAlC2+yX9lMrEoT201dUUyJABIiACQRIEEyARVEbIUCCQMOCCBABImCVBEgQrLJbLdgoEgQLwqaiiAARIAKWI0CCYDnW1lkSCYJ19iu1iggQgQ5PgAShww8BMwGQIJgJkJITASJABNomARKEttkv7adWJAjtp6+opkSACBABEwiQIJgAi6I2QoAEgYYFESACRMAqCZAgWGW3WrBRJAgWhE1FEQEiQAQsR4AEwXKsrbMkEgTr7FdqFREgAh2eQKsJglCshZNvIdifbS3otEJU5LpDq5I0S9VEEg0cfYrabluzPaDViJvWVjMFQSAWwTG8E0T28qaVb4WpNKVVqIhNA/TmN842xAdyfzfzM7KSHPRKNcrPp0KnUJndIoEA6B0AhAWanZXVZFCtBPZfBCpqm6dJIgcbOPYKgkDWxOtT81Sj7eSi16M2tQC1mYUWqVOrCIJAqEfYzAOQO1ZapJFNKUSjlOLChkho1eYNTNbWPjP3Q+ZY1ZRqWCSNRinB+T8mQqcRmV6emYIQ+t5sOPYOMr1cK0+R+9dxZH6/26xWOvbtjNC3HjQrD2tMrMgpQczTqwCdeQb2yFjgu6etkZB5bUotAHotAGrNdDChXILw1c9B4mxnXoWsMPXl139CxfmUFm9ZqwiC3LEafe7c2+KNM7eAuB0jUJXvalY2MvsahN+9x6w8LJH44pbRqCl2Mr0oMwVh4IalEErNkzDTK90+Upya8ZZZFQ1bNRc2AR5m5WGtic/M+hC6GqVZzfvpOeCBkWZlYbWJu8wDkvPNa559zwD0/OAR8zKx0tS5fx1D5vctf19pHUFwqkKfO/a1+a6L3zEclfnmTc/KHGoQflfLd6S5MC9tHYXqImfTszFXEP56FUKR0PRyO0AKcwWh75r5kHo0Qfo6ANuz9y2HtlphVks3LATuGmpWFlabuPtzQGKuec1z6BOMHu88bF4mVpo6d9NJZK6JavHWkSD8C2ISBCPGHwmCEZCaFoUEoWncjElFgmAMpabHIUFoOjtjUpIgGEOpheOQIBgBmATBCEhNi0KC0DRuxqQiQTCGUtPjkCA0nZ0xKUkQjKHUwnFIEIwAbEFB6OPshxJlNbJqyxoqJhdJMNi9E5Iq8pFTW84/FwuE6OcaCJVOg5jSbNiKJQixv7oWf6WyACqdFr2cfKCHHpnVpShT10IoEKC3k29D3mWqGmTUlMLfxhmuMjtk1ZSiRFUDIQQ8bYW6Fuk1pfCSO8BGJEFadQlP6yK1RW9nPyRVFiC3thwBts5wkdZvtNIjpizHCLBAawlCJ3s3OIjlUGk1SK4qglpveNOos7077MUy/ne1ToP4inyEOnpBKhRDqVXzuBq9jvPv6eSD2LLshhcx2FRlkK0r3G0cEFOaxfm7y+zgLLFFUpVhR3YfZ1/Ou0xVC5lQjO6OXg2cChSVyFNU8D4KdfTmfRBXkQudvmkbDVtVEJyGAkIbQFsDVJ4D9HW7+ZxHAoK6/TiaaqDyFOA4EBA5AJoqoIrF1QASD8C2M1B+8ppxJAScBgESJ6CILWnqAPs+gE4F1Fw2lMfKLT8B6GoBiTtgH3Y1fU08oMwDBDLAZTigrb4hf6OGbEMkEgTTeJkamwTBVGItEJ8EwQioFhIEdsP5aAjbkS/A5F3LecWGeYTg4yEPoVhZCTuxHBOi3oen3Akbxj2Hao0SOr0Oy2O3oUxZhc+HPYLkijye7pXoDShSVGHPlCVIryyAn50bvozbhT8zorFm+KMIcfJBakU+DuXH44vL+/H9yCfR3ckHvyQfw+fxu/nNa/fklyEWiHDbnhW4PXAAQp188NKZ9ZgZ2A8v97kdhYoK2IplGL/zfbzeZzomBw7geWr1Ojx8eLURYFtPED4a/AD6uQWhXFkDTxtHvBa9AXtz4/DZ0IfR2cEDZcpqFCkqMP/UL/h97LNwk9mjQlUDF5kdpu3+H8RCMXZNWoyIrW/y9rKwNGw6JvqHI7+2DL62rrjvwCp42Tjh/wbNQmTUB+jl7IeVQx/GxJ0fciHxs3XG8oGzEOzohcLacvyUfBTbMy/gm+GPwlFqy8WuUlWLx4+uQa1WbRTPayO1qiBMTAbkboC6ErDxBA5PAwr3ADNKAVWFQQbKEoAzdwLjTwN2XQxxJY7AjhDAYxQQ9gEQ1b2uSQIgIgpw629Ib+MFbPOH3ucuCPq8D2wPAHxmAAO/BbZ4AjoF4D4O6LsKcA4FyhOBi4uB4qPA2JOAQASIbaCvLYBg/0BDfBMDCYKJwEyMToJgIrCWiE6CYARVCwgCe/rcO3kpXjv7G5b1vxvPHV8LNgtwdPobWJt4AF8k7G+o6MKekzDEqyvu2f95w2cD3YLw8dCH8Z99K/lnRYpKyEVSRE16CcO3vYVujt74ZvhjGL3jXYgEAhybvgxToz5EsaoGhrKX4PuE/bij02DcuW9lgyCotRr8lnqSPzUzQXjj3EYuDk8d/Q4Xy7IbymeCMNo3DA8c/ILfMAsVxr3e21ozCEwQVBolXo7egL5uQVgx6H5MivoQHw95EJfKsvF3+hk+O8Nmc5ggXCnLxivn/sQvo+diY8oJ7MlPuE4Q+roEYFXEIxi57W3ooMfKIQ/hXHEavk86jG+HP4ZzRSmYFNAP713YhBOFyQ3c2CzB1gkLsTx2Kw7kXcZk/z54qvs4zNz7CY/zx9hnsSkjmsuDqaHVBSHvEBDzCNB9CeA9Azg4zCAIF54HCg8YhEBdYhCE0mQgehYwORk4/xIg1F0vCD73QD/kBwg2uwE6JXB7GXD2aSDrJ2DcWSBjI/Q9F0OwbwhQdfkqKpETcEcZsCUQUGYC4Z8DTn2BQyMAiStwezGwNwIoPW4qXpAgmIzMpAQkCCbhapnIJAhGcLWAIDhI5IiatBj3H/gCT4WOQ0plAX64chiHpr6KUdvf4Ter+vDD8MdRqKrCotPrrxOEVRGP8mltFh46+EXdDMLLiClKQ5hbEHKqS3HX/pX/EARPmT02Ri7AmO3v4Oj0ZRiz7W0+bc5E4LkTP+KriEfxc/IRBNi54/2Yzdg+cREeOPAFUuqmzVl5TBCmBg6EWq9Dfk0p7t7/mRFgW3cGoV4Qerv444th/+WzNh8OnIUB7p2g1esRU5KOZ46v5YLgKJajRFmFECdvTI76ADoIrhOESX5heDp0PG6vu7H/b/D9KKopwwcXt/MZiV/HzINer0fEtjevWzK4URCmB/TFf4KHYPbhrzm/j4c8gNiSTHx35ZBRPK+N1GYEodMTQLclQFRngyCI2VKUDkj+Grgw3yAIUj/DlL9jF2BHKODU83pBCH0F8L0H2BduaOK4GCD/EHBpHuA9HRixGai8cs2MQx2JGwVh4FrDsse5uYYId6qAY3cDeZtN5kuCYDIykxKQIJiEq2UikyAYwdUCgtDT2RffjXgS1RoFJEIxf3K9Y+/H2DT+eX6zWnByHZ+ijsq5hOn+ffFC2FS8cGItajQqSMUyiAUCfDTkIUzY+QFvEBMFO7GM38TYzYZNVzPpYOvZN84gbJ/wIhylNlBq1LCRyLA3+yLeubCJC8KcY9/hnuAhmOIfjkN5l7Hk7O98tiG3tgwvnFiHkV7d8Hv6GS4Io3zCMG33//HyldcIzb8Rbs0ZBK1Wjfdjt+LDQbMQaO+ByVHLsXLoQzhTlIr1KYYnStYOJgh51SX47PJeKLQqZFaXwElqy9mO3/Ee73PJt4YAACAASURBVB/Gf9fkl7Eidgu2ZV3E35EL8H3iQaxPPcHzOTz1NSw9/SsOFyZdh+NGQRjo1gkfDXkADx/8Enq9Dj+OeQaLT/+CE4WmHxhzK0EQSiXQazTQ/8thSk1+zZEtMRQcBxLeBIb/BVQnA8dvNwjCmUeAvF0GSWBT+0wQqouBy4sNywc1qYDvHUCf5cCefobTNsWuwLQk6E/PhaD0CDDxInAgEig5aOA5vRA4+zyQ+/P1w+1GQQh+Cgj/EPp9YyCQBwCjNwHbQ4Aa0/neShBEAkB7i+0j9Jrjza8OHVYQhrh3xvTA/pwMe6r4NC4KxcoqzAuNRGxZFg7nJ2Bx2G34Jfko3yT2fK/JeOPcn3CSyPFi2HQ+TcnWJNnU8Fv9727I54/UE3zTFAu3+YdjsGdXfmNYnbAfWXWby27sjtYQhKV9pqNH3UY5pVaDx499h48G3QcPuQOvXkJ5Lt6N2YJFYVMxwK0TX2dfl3wU2TWleLHXlIYmfBa/B6eKjP/FbsvnIPww4gkodWrMOfYDHCVybIp8AQ8c+BxVGjXeDJ+JAZ6d+Y3poUNfQS6UYGbQADzZfRzv36ePfQ+5SIxPhl59n/qJo2uQU12GTZEL+B6BawMThH1TluKO3R9Dpdfym9m84z/icnkO7us8DJP9wvDk0e+wZcJCPoOQWlnI8zlTlIZXo/9AsL0bXuw9FX1cg5BQloMnjn2HJb2nYnJgP14Mk5CxO94zwrxabwaBzRQM9QzhGw8P5MThm8QDKFRWYcXgBzDQPZjXvVRZzaf6142ai+TyHCy7sKmhTU5SG95H/B1qPTBmx7uI8AjBoj7T4CpzxA+JB/mYZUszLDCZeOnkzzhflnUdFwEE2DjuOXx8aQcO5yfyn80M7I9nekwEO+Z49eV9+CPtVJNOpP43QRDbyHBn9GqcWPQVMrbefHq9yYIQeRGw7wRoKoG0X4Er/wcoc4BpOYZNhixUpQN7egJjDgNlqcD5a84DYPsJhvxqGE/QQ/i3PeB7L9B3BSBxAGIWA2lrAH3d3ozJacCZeUDR1hsEwRG4LRfY0R1Q1rHv9goQuhDQKoALC4CsPwyyYmK4lSDseR0orACeXQMU3WTFzRhBuCtoIO4OHgShQIhtmefxY/JRvNZnBro5eeOLy3txvDAZj3YZibE+PbAp/Sw2ZJxFb2dfPBUaCU+5A18yez9mC1/6Wx3xCFbF70GVRoUlYdPxzoW/UaZW4JPB9ze0/tO4XThTnMb//W3Eo5CJDJtKazRKzDm+FutGPtkQ92xxGj6J24U53cYi0rcX31uz9soRVGkUeKr72IZ4XyXs4w89C3pNhrvcEZdKs/DauY3/SrzDCsLdQYPwRPex+DX1BG4P6IeThcn4IHYrfh01F7tyL+HHpCPYOeklLDr1CwpqK7Bx/HwM2/omvGUO2DTxRUTueB+VGgW/OJ247U3syY7lu8/v7TQUr0X/gZyaMvwwag5+SjoCgUCI/blx/KbbWGgNQeji4IGHQkagi6MXPozZwqXmz/HP46+0U4gpyeCb77JqynFg6it4/ezvXJ7YUzUb6GwH/sfDZuPVM+txujiN7wY3NrRlQTC2DdYWr7VmEKyNY2PtaVVB6ACAbyUIh98CRvQwgFi1E/hoK5Byw8mLxgjCkamv4duEfYguToOHjRPfTLs64lE+m9XV0QfT96zA72Pn8X1DWzLO4cfkI9g16WX8nnoCJwuu4OkeE5FYkYsPY7fxB4PXz/6Bx7qN4TOC3145yDfSMtl94cSPXAJSq4pRrjZcV9lbVfeHRMBFZo/P46IQW5aDk7e9iU9ityK+PBflqlqUqKqxa/KShms1BEIkV+Sjr4s/Phj8AOYdXYOkqiK83Gc6bEUyfBYXhd4uAfgz4ywJQmMEmCD8t9sorLwUhRd6T8WHMZuxP+9ykwXhxZPrcLggCcsHzeK7nr9O2I+fR8/F+eI07MyOxdGCK1DcZBe0SNUdsTs7oapEyqsqkWsx4LYCXIhyR22F4YucZHYaDJhRgDN/e0FVa/guAwd3JcInFuH4774Q29SafJLiM6GRCHcNwJPHvueiwwSB/ckG6L6cS/gu6TDeH3APIry64UpZDt6J2YyUykL+CtreKUtx595P+IyCKUGiCcWFHcGoKja0VSTRYejduTi71QuKSoMl2ziqMfiOPBz91Q8aleH0Q2dvBUK7/IqTL34F6HV81sdjSA/4RQ7A+Xd/aqiC/6RBcOzih7hVfzd8FjxzBLweZU/6FBojUC8IfV++Hzn7z6HgZHxDtEHvPoakX/ai9JLhaYaFiJXPIuZ/v6Mqw3ClpZMUbz6urhUE9wHd4B85EBf+71e+pNDiMwgdYLjXC4KjDbD5ZfAZn2tDeBDgZHv9Zyu3A5/tAJIMLxvBGEF4uvt4zAoZhtzqUrwXsxkXSjO5IOzOuYSFvafg+RNr8Xq/u/gSItuvsiH9NLZNeJHvqWGvMbMZiGkB/cBmFZkgFCsqoNZpce+BVbwO9YKQVpnPZ//mn/gJhcqrUx6Lek+Bh9yJv8HEAhOEnOoS1GpV2JB6kr8ZtazvHZjgF4b40ky8E7MFaVVFfPZiy4QXMXLbW3zJc4RnVyzucxvYa9tMEjZnnv/XUdKhZxDuDxmGhSfXYUHvqZCJpJhz7Hv8NHIODuQn4Icrh/gMwsKTP/Pd4LeaQagXBLahKb+mjJsiC+O9Q/Fqv7vwfeIBrL3JLmgX1yBc3NkZ2XGG6X17VzXGPJ6GE7/7oSjNMLqdvZUYOTsDB9YEobLIcHP16V6FAbfnYtfnnSEQKZtFED66uANH6qZZ2S+bs9SWD/A3wu9AsIM7Zh9ebZYguLoF4+LOIGRdMkxxymy1mPhsCo796ofiDENbXfwUGPFQBvZ+2Qk15QZBCgirQO+IM4iauhR6nZYLQvdHpyJo5gjsmrG0YZAPeGM2nHsGY++9bzZ8NurrhVD40Bex3OxKUC8I0/asQN6RSzi77LuGqNP3fYykX/fh8jdbGj677eCnOP/BL8jcYXg/ngTh5tfYs/cvh7bK8Ppe+KJZYAK7fdIi6LU6EoR/vTUZ98N6QXC1B2JXAMIbTlNnn1/7FSxsKYp9d8PtHwJxdasdxggCW3pls6iPdx2N/3QagglRH3JB+D3tFJb2mYFCRTn25cYhzCWAC8L6tBPYMfElPHZ4NRIq8vB8j0no5OiB50/+zAVh+YVNWNRnBpac+Q3HC5MaBGHSzg9QoVbwZctrQ2OC8NzxH3CqyCDu7NwOR4kNytU1+KD/f3h+s4988w9BYOesVKoV6ObohTUj52D4Na8IN0a8QwsCW2LYmHIMMzsNRY1Ggbv3f47ne07CHcGDkFFZiK5OPrhz3yd8g86NgsDe0S5VVuG+g1/wJYZqtQJioYhPw7PNbKwTvox4FFfKsxHq7I/Vl/feVBAu7xyOirzrv4uB3ZxvPJvl3z5ryncxNDaD4Cl35OuNbF17/smfsGfyy3WH0ojwR8pxfBQXZZYgNLbEYFRb9ToIN0dAr2PrlHouCDwYlRgYaKHvYmCH97A17frA1gOv/0zP3zJggR38w9pS/9aDhL0XXhd00PGNd5YIDUsMjbAUCARXWddVRiAUXLeprjkFgZGTiiT8gCTDZk4hP6zoWp7s74wVo6OpO1yp/ueMNftPUbdBk6Vnga391vNlfcIuqCzf+v0JhjyFfI3Z2M2dxvTNP5YYrmHcvDMIAkAoNWwm5HsC6tbz2WeMH/+9ueEcB6Gcz8Y1HKDE7zSyujzYoUr1409sOLNArzT8CeHVfQfs7yIZoFMbDldi6esDG7/scCZ2KBI/pKn+d1YKNgV+3bkHvO6sLhpAwB4KWNqrbw3djPW1SwyNfdXKQbY/M9SQmnlav0UGQbj2V+tWgsDGytGpr0MDHR+PR3Lj8dLZ37kg/JJyHKFO3nik2xj899BXeKbHBC4IXyfux7Lw2zExoC8feyIIMevAZ8iuKeOC8NrZ3/lZKs/3noypUcthU7fniY17Ft4/vwnbs2Mamt2YIGh0Wn6tPleUirfO/43NkQvBPmHnpqy9chBfJez/hyB8PPgBDPII4flWqmsxZZdhQ/PNQocVBHbinLet4SmWDZa82jL+pGwjkqKLoyd85A64XFGAjOpiSIQihDh48Q1k7O9s3Z4FjU6HKxV56OFsOBWP5VOhruH7D9gUToiDJ3o4euFyZQE/ge9mSwytsQeB1de97mQ+tvGOhU4OHrx9LLCNY+lVxXCX2cNN7sAHeWplAb9psV8YxoBtnGPTZKYEa9+DsH70XATYe/ALCbsRjd72Dv4c/xw8bZw5w0pVDabuXgG2IZIJKLtkss1Cz59cx3fgM2lgF4kDufF4NXqDKWibHLet7EFgr5numLioQQxm7VuJ1/vNRE+XAH4oEnvNlL0h4ia1w7oxT/P13qm7/4dyVQ1sRRL8NPoZfuASu3Ayzrft/Rjze07ibzu8df4v7J+8FLYSGZ448i3CXQMxxjsUjx1dA1uxFL+NmcdPoWTje0/ORbx94eoSVZPBArDYHgSRN3BHLj/RkEm04PzLQPoq4LbCulcaBUDRScPZA+wmPyUDkLNTP4VA5kbg9L2A0AO4s8Bws2cjM/U7w6uInRcD4W8Df0mh7/U2BM79gaPToA9+FoJ+ywGhBHqdBoLNHsCMAoOosPQ1bGNiAHBHLbC7P1AVDwzfBXjVbZyrzQWiQgFdDXB7uUEQtncCBv8EVGYAsbf+jmtj9iD0CQYmvwOcTgY0jVyubiUIrP/ZpmUfWxf+ZJ9WWcilPsDODaWqaig0KnR29ERyRQF8bJ35v4uUVXzY+Nu58vGVX1PO9xQw1WXXztyaMlRplPzvFXV7CNiruPUhr6acb46vD+zBjT2A5tQt6bLNkfWhVmN4q6f+Ws3EOrluqYLJMqvblfJ8XnepUIRAe3d+fcqrKWvY50CCYM5veQunbS1BaOFmNZq9tQsCa/RYr+5Y0ncmJkZ9yBn8PX4+dmRe4Af2sBsQE4WDU1/FxtQT+DJhPz9COaumrGHD638Pfon4utMYLdFHbUUQPGT22DpxEZ48shrx5Xl8JoY9zXexd8fPY5/F0C3L+EXu9sD+mBE4gJ+C+N75v3Go4AoXAXaBXXDyZ4iEhjkHdhG/URC2ZJzBcO9QbMmIxkiv7lwQNox9FofzErAqYQ8vk11g609mNJf/vwmCQCRC4NQhKIq+gupswzHQjQWj3mKoF4S/7IHAR4AucwyvJzJBOHU/UJkJTIkF/rQH+n8L2HcFDg0HZD7A5HhgZw9AWW0QBJaHXTcg8hTAbvqBc/4pCCfuAWaWA7GvA4kfAlJ3QF1seOqfkABkbAYSFhma0yAIl4G7NIZXGhW5wNjjQEk0cP5xgyAoS4HM9YBT72YThGHdgOOGF1NuGowRBHPHQXtN32FnENpSh5EgGNEbFjgHwYhaGBWlMUGQCiV8SWpfdizWJB/FKO9QjPPuwTcVrUnYzzeE1r8R01EFgT3VzO4yAqO9u/OntXnH1yKxIv8fgsBmX86XpONMYQreGzQLo7e/gzf6zoRSp8WGtFNY1vdOdHHy5kLxXM+J180gLD2zHgvDpvPXdtkUKxMENrPwzPEf0M3RE0+GRoK9NsaOfW6OcKtzEIwpwyRBiH8H8J4JFB8HLjxtEITqbEDqDChzgX2DoJ+QAEH6RiCxbu8OO7/g6EzDUcj1gsAOMrpDAewMBXzu+acgnH4EmJEPRPUCKuOub8bNBEEnBaaeBzaypQ0l0Odr6F3DIDgQYRCEcwsNr1BWXAaKzzbLDIIxfEkQbk6JBMGYEdTCcUgQjADczgXhVEEyNmee40+m7NWkSJ9eKFPXoL9bMCb59cFd+z7t8ILAlgkGunfmSwZv978b27PO83XUa2cQHCUyRE16GXm1pXwW29vWBXfv+xTjfXvitoD++L+L26HSqvHV8MduKgj2EjneHnAPLpVmckF4s++dGOndHYvPrMd4n16wk8jbryCkrQNydwPZ6wxfyMQEIXoBEPyQ4TyEEzOBoKegH/gFBEemAbYhQPgHwLYgQCs0CMKxOwHXYUDnx4GtfoB9X2DiUeDgJKDHMqCWnXfwCDAtG/riaAjSPjPsG8jdbrjx33QGId4wm3BuPlCTBgz9HbjwimEphAnC/tFA1wVAp4eBhC9JEIy4LLZ0FBKEliZsRP4kCEZAakeCMMy9M57uOZEfqMQC28zkaWPY78JeIWXflbBx3PP8YCW2Se7Ti9uwNy+BC8Jf4xfgxZM/NXzzoBFkzI7SVpYY2N6CNSOf5IfCsP06d+9byYWKfTvjp8Nm4469n+DhLiMwyqsbv7GzvTA/jJzDX1U+U5yKxb2nYLh3D/452x/ETsH8b9dRfHc3Owjt19HP4P9iNiO6NBPL+s7kX3L10pnf+GbFryIegW/dGjP7PoYVF7ebzZVlYLkZBA9g4ikgqqfhWxRZYIIw/qzhKGWBHBjwJbB7AKApAYbvAJzDDZsNY14HstYCQldg0jXvxR9/CCg7YtjkyJYDbIMBTQWwdwigKTVsNIyMBaRuBjGI6g1oK4ER+4Cc3UBK3eFgky4DR6YD1UlAwONA2GvsBWcgbycQ/bihrhNigeP3AqpyYPwRIOUnIIHF+/dwqz0It0rPfk4zCDSDYMw4abU4JAhGoG9HgmBEa3gUdiNjb2NY5l2Fm9eqrQhCfQ3ZKZNNfYODSRbfR9AEqvVvnzRnj1hMEIwddNfGYzd4vp3fyBHI32RoZJcf/9zwdpFxwdBLTTk58cb8SRCMI97UWDSD0FRyzZiOBMEImFYoCEa02iJR2pogWKTRFiqkTQuChRi0ZDEkCC1JFyBBaFm+RuVOgmAEJhIEIyA1LQoJQtO4GZOKBMEYSk2PQ4LQdHbGpCRBMIZSC8chQTACMAmCEZCaFoUEoWncjElFgmAMpabHIUFoOjtjUlq3IDhWo8+de43h0Kpx4neMQGW+q1l1aMpJimYV2MTEF7eMRk1x3TfJmZKHuYLw5ysQiq+eVGhK0dYe11xBCF/9LGTeLtaOqUntOztrObQ1hqOWmxp+WwDcE9HU1NadrutzQFLj34FndMMdwoLQ493ZRsfvSBFz/z6BzO/Y14K3bODfyGpqEeyYV0MQQj/ic8BjkElZiCVa9J21E0KRaaf9mVSImZH1OiEubBwPVbWNWTmJxDr0u29Hm2/r+T8ioa6Vm95WMwUh7PO5sAm8elKZ6RWwzhTq0iqcm/2RWY3znjkUgY9ONCsPa0ysU2lw9t4P+PcumBNemA6soPvXPxAqVIDfHKDEcGhhk4PI0Rb9f1gAAT1A/INh8kd/ofhAbJPZGpuwVQSBq4VYC7dOeRBJlcbW1WLxdGoxStJ9oFEavpDI3GBoaz5EUvOeWMytR2PpdRoxSlJ9oVEZvrHR5GCmIAhlEjiEd4Lch55069nXJOehKi7juu9VMLlfWAKBAHJvFzgOCIGgsQPxm5Rp+06kqahF6fF46BQ3fP9BE5rF7lvBHsD0/k1IbKVJskuAqAtAhfHfNP+vJES2MrhE9IDI7prvkrBSdkY1S6dH6YkEqIorAJ3Jz/ZGFXFtpFYTBJNrSgnaJgEzBaFtNopqRQSIABEgAiQINAbMI0CCYB4/Sk0EiAARaKMESBDaaMe0m2qRILSbrqKKEgEiQARMIUCCYAotivtPAiQINCqIABEgAlZJgATBKrvVgo0iQbAgbCqKCBABImA5AiQIlmNtnSWRIFhnv1KriAAR6PAESBA6/BAwEwAJgpkAKTkRIAJEoG0SIEFom/3SfmpFgtB++opqSgSIABEwgQAJggmwKGojBEgQaFgQASJABKySAAmCVXarBRtFgmBB2FQUESACRMByBEgQLMfaOksiQbDOfqVWEQEi0OEJkCB0+CFgJgASBDMBUnIiQASIQNskQILQNvul/dSKBKH99BXVlAgQASJgAgESBBNgUdRGCJAg0LAgAkSACFglARIEq+xWCzaKBMGCsKkoIkAEiIDlCJAgWI61dZZEgtC6/SoUAzpN69YBgEAkg16rbLweAhEEQhH0WhUglAA6davXlypABIjArQmQINyaEcX4NwIkCKaND4EQIntfiBz8oasphqbsimnpIQCEQkCnhUBiB5nvECjS95mYR3NHF0AeNPam9RA5BkAod4e68AJk/iOgLroEXW1xc1eC8iMCRKCZCZAgNDPQDpcdCYJJXS4LGAVo1VCXp0EkdYS6IhVgT9ZGBqHEFmKPcKhyjvMUApEceq3CyNQtFc1IQSg4Z5hpYDMIel1LVYbyJQJEoJkIkCA0E8gOmw0JgtFdL3HvDYgkUOefB6BvSCeQOUHq3hsCkZRPwytzjgF6PeSBY6FTV0MosYO2thjq4njI/YcDAiH/uSJjP4/D/mRP5jpFOYS2bvxn6sIY6NXVkPkN5z9noT4um+aX+Q2DQCCCTlPLn+jZEgCrnzLrCI8rCxwDZeYhiF27Q2znzT/TVGRAU5ZsEBOJLaReAyAQiqGpzIHY0Y/PIAhtPSFx68nroNdUQZUXDZGjv2EGoeAcZP7DoS6Kg9i5M89PV1MICMWQ+4+EIuMApL6DIRBKeRmq/LPQq2sgDxwDnbqGt0do42aoo14HsUtXCARCqEsSjO4DikgEiIDxBEgQjGdFMRsjQIJg9LiQeg+Etiob2qrc69IYPs/h/4kcAvjyA5shkAeNgzKLyYIasoDRhhuwxK5uBuGY4aYfNI5/LgsYCW1lNjRlKRA5BkJk48Zv/Ewc6pcgrsYdzW/SutpCiF26QCCUQFudC4lHGJSZh6/KROZByPxHcjHR1RRAIJJArzXsHxA5BkMos4e68CJE9n6QuHWvq8doKLMO8xu41HsAtJVZgEh6jSCwJYY4COXOfPZDXRwHiVd/Hk9k6wm9ppZLiFDuAol7Ly4DTGyUuWegV1dxYWF7GFgcxk1TkQldTb7RfUARiQARMJ4ACYLxrCgmCYJZY4Dd0HTKMmhKk67LR+Y7DKqii9CrKiGUu0Li3gPKrKMNN/9rRcCwxNAXKjbLcIMgqAtioFOWc8EQ2XrcVBC4eGQe5lP97Ilc7BgETXlKo4IgFNtC5BwModyNP6nrqvN4ufymXpFu2EsgFEHOBIbdzP2GQ6soM7RPAOgqswGx7B+CoFNVQuY7FMrsY1xuVFlHIXbvCaHYBjqNkqcV6PVQFZyvm/k4wGddBFJ7yLz6Q5F5GLLA0XyWg5YrzBqWlJgI3JQACQINDvMI0AyC0fwEYltIfYfwG61eWcGnx3XqSkg9+0GnKOEzCGyKXmTnDVXemUYFgS1DSH0joMo7zafcr51BuKkgZB2BUCznT9x8tsFvGNTFV6BTV0Di0pU/kWur8iDxYuJxAhBKIfMdzKf82VKCXqOEQCCGzG9ow3KF2CkYAltPqPPPQezUCWJH/7oZhFFQ5Z+HXlPDlx/YjAPflGnnxdtk2KQYx9vLZ06q8yF2CuIzBWLXUL58oi1Lhp7JgFBiaCNfRjEIAvu5PGAUtFX50OlUPC4FIkAEWoYACULLcO04uZIgmNTXbGpd6hlueLyGHors4/wGzfYK8BuqRgElu0nzPQOjocg4+I+/y/wi+HQ/+1l9HPYZfzuAzSDY+0Fk6w5VwQUY4kqhqcyG2MHXkJ9AZPicvXqo0/DZClYXtpzAPtNWF0Bo685v2oZ4Yv5zdmPXsj0DLAglkPsN4zds9jmb9WB5M6GQ+QxqaJ8y9ywEYhtIPXpCkXmEi4e6+DJ0ilIuQmxpQpl3DnpVBc+WsWGMGB+tsgrq/DNgGzsNSx+GfRsihyBIXDpxEWEzMhSIABFoGQIkCC3DtePkSoLQhL5m8+dsoyHbyX91s+LVz4zJ0oRf3Yaybsi3sc9v9hmrp/6autZnddO8RTe0z5T6sriCmy8dSOwgZzMc6XWzCsbgojhEgAiYTMCE39qreQsELBl/jIB+xOeAB3tioNAhCZAgdMhub5VGC0WQ+Y/ib3qo8862gdc7W4UCFUoELEaABMFiqK20IBIEK+1YahYRIAIdnQAJQkcfAea2nwTBXIKUnggQASLQJgmQILTJbmlHlSJBaEedRVUlAkSACBhPgATBeFYUszECJAg0LogAESACVkmABMEqu9WCjSJBsCBsKooIEAEiYDkCJAiWY22dJZEgWGe/UquIABHo8ARIEDr8EDATAAmCmQApOREgAkSgbRIgQWib/dJ+akWC0H76impKBIgAETCBAAmCCbAoaiMESBBoWBABIkAErJIACYJVdqsFG0WCYEHYVBQRIAJEwHIESBAsx9o6SyJBsM5+pVYRASLQ4QmQIHT4IWAmABIEMwFSciJABIhA2yRAgtA2+6X91IoEof30FdWUCBABImACARIEE2BR1EYIkCDQsCACRIAIWCUBEgSr7FYLNooEwYKwqSgiQASIgOUIkCBYjrV1lkSCYJ39Sq0iAkSgwxMgQejwQ8BMACQIZgKk5ESACBCBtkmABKFt9kv7qRUJQvvpK6opESACRMAEAiQIJsCiqI0QIEGgYUEEiAARsEoCJAhW2a0WbBQJggVhU1FEgAgQAcsRIEGwHGvrLIkEwTr7lVpFBIhAhydAgtDhh4CZAEgQzARIyYkAESACbZMACULb7Jf2UysShPbTV1RTIkAEiIAJBEgQTIBFURshQIJAw4IIEAEiYJUESBCsslst2CgSBAvCpqKIABEgApYjQIJgOdbWWRIJgnX2K7WKCBCBDk+ABKHDDwEzAZAgmAmQkhMBIkAE2iYBEoS22S/tp1YkCO2nr6imRIAIEAETCJAgmACLojZCgASBhgURIAJEwCoJkCBYZbdasFEkCBaETUURASJABCxHgATBcqytsyQSBOvsV2oVESACHZ5AqwmCWK5C8LALsHMvbZOdoCh3QOqRflDVyM2un8RWgeChMbB1KzM7r5bIoLbMESmH+0OjkJqevZmCIBAKihZUeQAAIABJREFU4Xv/aLiP7QMBG40UAD1QFp2MjDW7oFOozCLi0CsIwU9PhcimCX1rVsltN7GquAqpn29BbXqB2ZV0GtgVQU9OhlAsNDsva8lAWVSBtM+2oDazyOwmSZzsEDhnMhxC/c3Oy1oy0OuAnI1HUbjzLKDXt2izWk0Q/Ptdhm94Yos2ztzMCxKDkHYs3NxsEDwsBp7d08zOpyUzyIntiqyzPUwvwkxBcOwfgtBlD5hebgdIEf/yD6iMy2hySwViEfqvWwiRnfmS2+RKtNGE1Um5uPTCN+bVTiDAoD9fgUBEcnAjyJJj8Uj64A/z+ALwvXck/B8Ya3Y+1phB7PyvUZua36JNazVBCBoaA6/Qtn3TLMvyQuKeIWZ3QOeR0XAPyTI7n5bMoDTDB1f2DTK9CDMFwXPqQAQ/NdX0cjtACnMFQSSXot+6hRDKJB2AlmlNrE7Jw6XnV5uW6IbYIns5Bvzykll5WGviiksZuLzkB7Obx2YPvKcNNjsfa8wgfulaVF5Mb9GmkSD8C14SBCPGntmCMAjBT00xoqCOF4UEoeX6nASh5diynEkQWpYvy50EoeUZ/2sJJAhGdAAJghGQmhaFBKFp3IxJRYJgDKWmxyFBaDo7Y1OSIBhLqoXikSAYAZYEwQhITYtCgtA0bsakIkEwhlLT45AgNJ2dsSlJEIwl1ULxSBCMAGtBQejm6IVx3j1wtjgNp4sN+1fkQjHG+fRAX9dAnC1OR1TORYgEQgx068Q/T6rIx+bMc/C3c8EEn14NDfor4yxcpHYY4x0KnV6H2PIcRBenI8IjBN0dvevi6bEm6QjUOi0m+/ZGsL0bfkw+jhqtCmxtbk63MTzNqeJUPNVtDP5OP4s8ZSU85Q6I8OiCXs5+2JEdi+iSdDzaZQSkQjHPt1BRgY0Z0beE25qCsGn88xALRKjSKPBtwgHszYuDTq/HlsgXIOStB35M3I/fMqKxefwCzrxSrcA7FzbhYlkWfhj5JL68vAcnC1N4XFuxFPO6R2K8X29UqRV4NfoPxJfn4pdRc7H2yiFE5V7CO/3vRo1agfdit/I0y/rejkHuXRo43X/wC2j0Onw8+AF0dvBEVnUxlp79Azm1pr8d1JqCIBGKsGHss5xvmboGX8fvxaGCRM7w7/HPN/BdGbcTMWXZ+DbiMc6gTFWD189tRHJlAX4f8wxeid6AKxWGTWpsLD/XYwIivLrxeIvP/Iq0qmL8POoprE7Yj8MFifh++OM4lp+Ar68c4mne6X8X+rkGX+V76AvYiKS8H4Ls3ZFeVYwXT//C8zM1kCCYSsz0+CQIpjNr1hQkCEbgtKAg/DRqLnJriuEmc8SjR7+FUCBA1MTF0EOPC8Vp8LJxxsOHv8Z9wYMxr/cUnCtKgYvMHi+e/Bm9XAOwNPx2/J16kjfq97TTGOQRghd6T0FU5jlMDuiPL+J2oURVjeGeXfi/f0k6jK8SD0Cj02L/lKU4kBsHlVbDb2AigQDHpi/j/54Y9QEOTH0Vcw+vRnRZNjaOew72YhtcLE2HTg+8dGY99kxegiN58ShWVCK/thy/pZ+5JdzWFIQj017H29EbUaqqwcqI2bhn30pkVJfg+PRluHvvJ1DpNKhWK1GjU+PY9Dew9PSvCLT3xIzAfrh7/2dcJJbHbsPh/ATezjsC+mFer8l48OAq3BbQH7O7jsKo7e8gzNkfHw19EJOiPuSMHz38NRIrDK8fOknk8JE7Yu2YZzBz90fIV1bgm4jHYCeW4Znj32NR2HQE2LnhgUNf3pLljRFaWxAOTHkFC06sg4vMFsv6343bd3+EYlU1GPdZ+1eiRqNCpVoJdxsHbBj3HB459DXuDBoEP1tnPH3iR+ydvATzTqxFfFkOb9ri3tPQ08UPi079igdDInBnpyEYv+M93Bk0EKO8Q/Huhc3YOH4+Jkd9yPuUBWeJDQa4BeO9QbMwc/cK5Csr8ePIOcisLsGKi9uwYtAD0Oq1ePToGpP5kiCYjMzkBCQIJiNr3gQkCEbwtKAg7Jn0Mpac+Q0rhz2MiK1vwl3ugM2RC3H/gc+RWlXEn2vZU9iR6W/g3n2fIr26pKEBkb69sDR8Bn5POcGF4uuEA7gtoB+e6DYGM/Z+jNf63AZnqR0WnlmPUEdvfDdqDi+Dhb7O/lgx9CF8k7AfE317czmpF4S92RdRpKjEvSHDuCBcrMjHoamvYuyOd1GrVdc9a4MLAhMMNnsQU5qJYwVJt4Tb2oLw/PG1OFOSjr/GzceJvAR8GLeTC0JBbTlneO+Bz6HUarggPHXkW/jZu+OxrqMaFYQdExfhlyuHsK5O0NiN8NFDXyKpqggHp7yC9MpCnChMwueX917HxVNqjy2TFmH41jf57MHhaa9hxu4V/CbH+vrotNcxZvs7UOg0t+R5bYS2IAgPHFzFn/LXj3kGu7Ni8EPyUS4I9XwfP7oGcpGEC8L0Xf/DfZ2HoqeTH+aeWPsPQdg4bj7WJh7A5qwLnAsTkPsPrOKzK9snvIi8mjIczovHt0mHr+M00DUIq4Y/yse6Vq/jY/ee/SuRV1th4Dv9dS4a1RrTzuMgQTBpODYpMglCk7A1XyISBCNYWkgQvG0c8df4F7Dy0g483GUkdudcxI9JR7FlwkLcf3AVUisLeWXZRY3dsBadXIdD19yEmSC8FDYdH1/cwW9uO7NjuSAwaShRVsNVZo/Zh75EYkX+PwRh9fBHodVqcaEkHQ93G80vpvWCcNeeT7B+3DxIhOLrBGHa7v9DsbKa14mJCxOEX1OOI6u6BGlVhbhcnntLuG1BEKJLMnBw6qtYcvoXHClM5oLwyOGv+bJLSmUhZ8l4q7VaZFcXYcWlnXwJ6MYZhPf634Uge0/+tO8klmHn5CUYVydRgXau+H3cfNzOnmIVFf8qCHsmLcF3CfvwS9pJTPXrg1f7zsSIbW9Dx06XMiG0FUFgT+u7Jy/B4lM/I7okkwvCE0e+4XKZXlUEb1tnsJt/rUaF9MoCvBuzmY/RG2cQPh/yEHJry/nPXaU22DZxMZ8tKFfXYrJfHyzoPRlTdv0fXya6NtwoCFETX8Inl3bwpbE7A/tjYdh0jNr+NrQmHshDgmDCYGxi1A4rCN0dvTgyvV6P1OpifjGyE0vhI3dCUlUh7MUyvs6bUlUED5k9bEQSZNSUIsTenT9ZlNRNobHP2cWHnTaVUlUMtV7b0BWBdi7wtnFGbGkW/2VsLLSGIEiEQnS292ioTo1GiXxFJTrZuzd8llFVjFqdBi5SG3R39EFiRR5vc2d7d7D1zfqQULc+acz4a71zEG79miO7wa4f/QzyFWWILc1GmEsAHCRyPHb0Wz4l6ipzwNGCRD4m5p/8Cfd3Hopne07CnuyLsJVI8b+YrejlGsiXGDaln+U4/ko/jXDXIMzpPhazD6+GQqtqeEq6cQZh16TFOJx3Gbm1ZbgreDC2ZkTjq4R9fIkhYssyPN1jPB7sMvKaJYb5fMydK0njyxMfxm7jgnCsIBFFiiqUq2rwww1Pco31UWsLQqW6lq+TFysr8Mhhw02LCUJKZT7/3dyfcwlrkg43zCCw9fL6wASBSZNSp8aOrBj8nX4Gf4x9Dnm1ZfBkspd2Gp/E7eLR7SVy7Jn8MsZsfxeKG34Xb5xBCHfxx1fDH+M3Tz87V7xz7i++78TU0BYEga3ts2vUpdIszD/1EwQQcEFIrcznN/L1KcdxvjSzYQahSFnV0EwmCEqtml/TPozZyvd1fDzkQZQqq7lUfBm/Gz+nHOfxh3t2xeI+t2HGno/+gelGQWDS9XL4DOTWlPF9CPOO/4Azdft9TGFsSUGwEYrR1y0IKZUF/FopF4kRZOfGq8tkiikRuzcwvuz+UR96O/vy/RVZNYY9LBKBEJ0dPHClogAOEsM95kplIU8rrruuMuZpdTOT7LrE9kXVB/Z7XaSsRojD1et3Zk0pXy5i1+oeTn6IK8tGmboWgbYusBFfPd00iT/g6BHuEoBqjRLGXLs7pCCI+bTWGzhXlMqnvLo7++Le/Z+hm6M33uh3FybvWo4x3j3wQq9JmLH3E8wLjURv1wDMPfY9NkW+gN+Sj+Hn1BO8z/q4BGD1iMeQV10KV7kDfk46iq8T92OKXxiW9p2J5PI8fpGZEPVhmxEENig/HfIQOjt6Iae6BGeLU7Eu+SjWj3kWaZWGDUlvnfuLCwGbemSb8HztXHDf/s/wet870NnBi7c1s6oQ9x00fm22LQsC22swr8dE/JZynD9hsl/AaQH9sDJuF/+l/0/wIAQ7eCChPBebMqL5Z5G+PRDuGowyVTXWXjmCTnVp6jt6Y9opOEpsMNSzC75NPHBd/7M+uC8kAp9eigIbj0w2vr68BzVaNQa7d0JPlwD8mHQY83tOxqeXdkImEuOp0Ej8kXIMWbXlkAnFuKfTEC6gZ4tSsC8vHk/3iIRMaDiwqFxVje/qNor920W3NQXBz9aVH33N9lgUXPNU72/rapgSAVCtVnAh97dzRUFtBd+XUB98bJwhEhpOGKxSK3k/SIUifkFlMyvsabc+sP71tXVBdnUpn5G4NogghI+dM595qQ9OEht0dmCb6Er4npGmhNYUBIbPt46vQqNCsbKqodWM5bU3nFqNGt62TvyGza6H9YHxYtxYKFZUoVar4htBO9m5oUBZhUJFZUNctkzBNjEywb0xsLHq8f/tnQd4lFXWx/8zkynpvUOo0jtEOhEUwVURC+g+uygodlcs67d8uN8Ka8G+KrhiWbHgWmGxUBREmiAsHQKB0NJDGunJ9O85Z9IIgUwJw2Tm3OdBk8m973vv79537v+ec+59/UPO4Ut5aQFFLjpnAhTpHu4SCGT5o8DOk+VnWBj9dddXqDQb8NHY+6FQKHDDulc56PObCXNAi61JP70MtUKFL8Y/zJ8HqnXYWXAcf927HIm6EKyY+CQmrX0Rrw//A1v5KI7mu2seZ6FMz21GRRHm7rGdEElWxGXjHkCn4Bh2C63N3o8VGbvZqkkij0T0C/u/g1KhxNujZuJoaS46B8dg5pZ3MfuKFI6BCtUGILOiEPdtW4pFI+7kxS+lHQXpeCV17UWHtk8LhAUUoVtRiHdHzWKgiQHhTgmEt0fOxMQfX0SHgHB8kvIgmzHJT9o9NB4vH1qFvKqzqDDpW+yIqqIoHFkzEhZz40sCQmP1qCjUwGJp/CwsvhZlZ3Sof36VKisoX2mejo/KdvQkxXoz+UO//gu7SzLRKSgSy1IeYp8iJTJLJkd2xvPDpuPxHZ8hq6qYv4TJzDo5oS9PVlM3vOnQ92ZlQQzSfhx+TlvD4vQoL2hsq0JpRVi8HqW5tnZRUqosCDk4DWVHs1gB00Ph56+Ff1wEKk41mtHVwf7QhAahKrtRwWvCAhF7w3DETx/jUF19JXO9QAiIj4SxsgbGisZo8qCkWNQWlcFUXduAI6R7IqqyCmHW2/zF9P4FPklRIycpNh8zTQWCUuOHwMToc8arSquGf2wEKjMbj7JV+WuhiwhBVU6dO0tOUrzgo9hcIAR3jUdN/tnG8aoAwnomofxkLiyGOmGpUCCsR0eUHm08Xry1kxQ7Bkbw5P/QtqVIL89nK1e34BgsGnEXW1NfPvA9koKiMCG+D0I1ASwQ/tL/evQL74CZW95HtC4Iyyc8xkG49AVOAmF11l4W9w9v/5i/U0kg/JR9AN9m7WVrAAm6poliPBbsXYEdRScRowthgTBj0zss2nKrz+L6xIF4pO8kPL5jGU5XFHK8DIm9Gd1G4vauo3DDutf4cmQVIhcoLQrLDDW8W+piyacFApk3TRYLKo01uGfrB+gdloD5dRaE8XG98bidFoR6gUCmoQ2T5+GJHctwtDwfi0fchaTgSJzVV+KOjf88R53Xd4ouIACFqYNwZJPNvB8QasSNc4/jty8TkLEvlD8LidbjuidO4uclnVCUEcCfxfesxNi7svD9S91RU6ZuE4Hw5fhH2TRttJgaBtRfB0zBuPjerGSnrH8NVSaj0wJBFxiAvD1DkL7dtoLR+psw9W/p2PJRB+QeDebPIjtW45qHMrD6tW6oKLKZxzoPKUXy1GwsHzQbVrOZBUK/Obeh56zJ/Fl9GvXmnxA7qi/+k/xAw2fXrnweqrhgFBe4/lIXbxQN9QJh+pFPUPDbYWyc9WJDM+mz4/9ejz3PftLw2e1pn2DX/I9w4osN/JkmIhiDP36C+0TSuQSaCoTk5+5G12njsXzwbJiqbYuFse89iYSUQVg+5F6YqmwibNK3zyOsVxK+GXA3zHoj5KjlC4+q5gLhll3v4sgHq3BkyXdcyD8mHFM2v4ntTy1B5vfb+LOI/l0x8ZsFWDd9AUr224J4WxMIZEWZfcU43NJ5OFtQZm99n1fs/xg+A5vzj6B3aDyMFguOlGZjYuIAFghLRs7k7cnvHfuF70ET/P/t+ZotzSQQyM1Frqt1ean8dxIIIZoADsilQOOFB74/p+EtCQT6rqan7o4Ni1Bp1mNu/+sxJq43NAolpm9czBae5gJhRHRXzBs4FWGaALxz+Cd8fnrnRR9bnxYIj2z7ELuKM/HNhD9hafpmnCg/g/fGzMaktQsxf9CtiAkIxcwt77XqYqgXCDSIbu0yHNeufZGDm9blHYJWpcaaa/+CGZv+ifSK89/sVl0SyRYEs7HuZSwKICqpGiU5/rCYbBYEsvJFda5GcaZ/w+pb5WdBZKdaFJ4MaDMLwqfjHsT4NS/woKN9+wPCElnJFtRWYN3kuXjr8I9s3nLWglBdEo0ja4Y3thVAdJcqFGcGNLSLLCP0WcHJQFjrLCh+GhPCj89C0W7azmazIKiDAxDcOQ4lB2174ClpI4KhiwpD2TGyNNgSfUnETrkSMVNcf9/FRZ+kdvrHeoEQ2qMD9CUVbDGoT+H9urA1xlDauJqJGnIFSo9mNUxotOK1WRBs5y9IaiTQVCD4Bep4vJ5NbXw3DFm8yKpQmta4mtWEBUEXFYry47ZYCxEIFx5RzQVCxIBuqMw4A0OZbbwqlApEDeuFswdPwlRjE2X00quoIT1QtOcYrGabO6U1gRCtC0SYOhAnKgvxecrDbObfXnicBcJN61/HhuvmcTzHn3d+hmeH3MYCYVJ8X8wbPBV3/LIYfcISMX/wLbhm7YuI0gSwQCBx8GT/69m1TS5NEghfn9qBf9ftgGoe6NmSQLhm7UK2NpClIDmyE7IqS1BoqALt5iFrw68F6ecJhEkJfbAu9wjm9JmI8Qn9WowZaUrcpwUCrZRpstlTdAoL9q3kA0VmdR+L2T0nsC+IYg5oa1vzGIQY/1AOEPsofRNvJXt/zGweIAeKT3FQFB3OMqXDQMwbdDNPtl+c+BWL0tafF91LHXE5ghT5i6cuEr+pi+Gr8Y9ywBulZ3Z/jfSKM1g69gHo/NTYWZCOubu/ZuXrrEDw5BiEtpjYKGjpnh4pDZeiWAXymU/r3PgimHfSNrCf9t4eKegeEofCmjL84/BPmN0jhV1clOiBp/HojnQ5YxCat29652Tc3CmZg7XW5xzEmpwDeGnYHQ3Zvjz1G1Zm7kH/sEQOBl2TtRef1AXJUYDtk/1+x3EGxPzp3V/zYT+fjXsQs7a+Dz+lEh+Mno3NeYf53Im3R9yJZce3YHvRKVDA8mN9r0Osfyj7kMmaqHdwS2NLfeXOGIS7uo/hnQRkrqY4CzoXg9Kn4x7gGBcyJVPQ5g/Z+/nzF4ZMwxWhcRy38fKBH3jx8lCvqzE2tid/T9EYpUmGXKN/G3gTDpXmYEXGLrySfAf2F53GslO/oU9oPHOL1AVhX3EGB9W+NXxGA4oNeYexIS8Vzwy6GXdusb20ivziVyf2hdlixZqcffjshC3I8fOUh/BjzkEOrF06Zjbm7foKec12mzRn7K4YhEhtID6/6hEOdE07m42ndn2JaF0wC4Tr173KW0h3Fh7HutxUvDzsDhYIlO69IgUzrhjLcTR/37eSRUV9DML41c/z9ufRcT0w/ZfFLBCidaG8MMupKsb0OldvfZtbEgj0PUHz17xdX6LcWIM3RtzJLo8teUewYP9KFg/NLQhLRt6FgZFdUGGoxuM7P0Nqk6DflsawTwqE1r54afJsGqzTWv4L/Z0CVMg8RXurL5Qul0Cwt01kw6Dgmaa7M+wt2zyftwuEWP8Q3NRxCGb1SMF/MnbxbgaK0qbJ7NPjWxnHyszduLnTUN7+uDxjFyK1Qfhn2npMSuiPaV2Gc8T5qux9WJp+7l5yZ5m3Vs6TBMKqiX/mINGDZzMRrPbHf4tOoV9YIl5M/j2fhEjbTinwkE4IXHz4JyxMvgOjf/g7T4orJszBprzDLCooYC6nupStX9tveAbjV79gEx2T57LAfXj7R3hp2O1449BqbCk4jtXXPsU7Tn7MPsA+5H0lmRd9ZltjWv93dwqEJ/peh2GRnfF22nrQzx+n03kFB3jHwtz/fo7BkZ0xIaEvbv75DSwcOo0P91p6bBPGxPbEVfG9ceP61/HM4FtYLL2btgFXxfdBHwre3vg23hk5k/viw/RN+Pyqh/HbmaNYlPYzqL92FpzA5jNpHBz6c94RDAjvgOeGTsN3GbuxKns/Hzi1ZPTdfGBVcmQXvDb8Dyw8yFT/P/1v5BU4BYHuuHEB75KYuXkJPkl5AHdtWsK7xi6W3CUQ6utAbTTULaDsHQM0l9Ck7w4HHH9XK1W8I+9iiUQEudabB+uKQLC3V92Yz9MFQlui8HaBQKzoS2TDdU/j7i3v8dZQOvSItnTRvm9K63NTkRLXi89L+ObUDuwtzsC2QpsvlHaI0P7yx3b+uy2xX/RaniQQ5vS5FlOShiCtNBf/St/EPlwS2TSB06RCK7BYXQif1nftjy9h9cSncP+v/8KZmlL8OPl/MfL7+Xh+6G289fH9oxtxtDzvPIGwPucAgtT+bL1549Aq/FZ0moVDyurneNdSpC4E8/euQOUFgood6Rh3C4TBkUl49eBqzB1wI746uR3/ydrLAuG1g6vYWjAssiumb1zEEfkkAkhMJfiH4Zur5/C5GyQQEnXBuG/7x+gf3gFvDJ+Bq9cubFEgLE7bwAdKUQQ/nfHRNH13zRN458h6vn6f0IQGgfDs4FthspiwYP+3nJ0Ox6LtuXR4FQmE7zN2I8o/BAMjOnqkQHCk770lr1gQLnNPikCwowPcdFCSHTVpNUtLAuHpQVPxXd2xxx8c28TvE6B9+n/sOgq3dRnOcR8UjezrAoEmfzKVPtJ7Iq5J6Mem2uYCYWrSUDzWdzJ+zj3IAWGvH1rN205p2zKtOumsiXdH38MmXZp4mlsQ6MQ+EhhkLp6/+2t2MVB8DR0zTPemnTy3bXgLZ53c2th0gLhbIEzpNITdCxQU/eiOT9lVQAIhrSyX/eB/2vYRdpdk4LOUB7E1/yiWHP0FV0Z3wcKht2PC2oUNAuGB7Z9gUmJ/PNLnWjahk9sgp7oErxxajeXj52DF6R347NQObLxuHpu3SbjR1rkyoy3Q8kICgdwL4+P7YDafEqrEDxOfxOytH+B4RQELhGk/v4Gl4+6HTqXhLdWeZkFo9eH3wgwiEC5zp4pAsKMD2rtAGHgTvqk7N+OL0ztxX88JfLgWHbpCPncRCLZjD1Ze8zgiNEFs+txXfBqP7lh2nkD4cPQ9vIWLzo8YGd0F9/WaiNGrnsUfu43krbe0M4nOnnhsxzLsLDp5nkCYsOYFTO00FHP6TsbT//0c6/PTsGTULAyISOIdPORi+N1Przi9N/9yCgRyD9y//aNzHigSCLTKn9V9DEbG9sT0Xxahc2AEPk55iOJ9OTZjY14qnt6znAXCdRTHYLWyi+XT9M14P30TBoV3xOJRszg+iVymdL1yYy1eHfZ7jIrrwZP90dKchjiDCwkEthpc/RiitEG8CyCzqhi/r/O1k0Cg46xp99gzQ25lsSACwY7vxkucRQTCJQbc2uVFILRGiDYuWKD4diQHhtbvYrCjVEOWmN+1fpKiI9e7WF76Ap2UOAC/njnGK9KEgDD2/9anrWeOcWDR1fG90SEgDNsKT2JP8Wn2UQ6MSOIDkGhic1fyJBcD+aVp8iAfKp3oV+9LDdcGsn+afqdDayiQkGIJSFTQ7xRrQAdXhah1iNIGotRYyxM8xRFRjEcJ7ylXIEIb2GAOp5/JkkMBjXSdEI0/wvz8UW6yHbjUFj5jd1oQyNdPEzWNuaaJ+JA1hA7uIauJjQU4NiBM48+ulHJDDbeX/k7jj36mLdt02l59olNF6cVLdHha/ecN3NT+KDZUcx9RokOQqs163rJHAZK0fa/+vvS2UWJvtpj5AKz6+Kz6fiLhQFvw6vvvYs+Bu2MQ3PVMetJ9RCBc5t4QgWBHB7QjgWBHazwqiycJBI8C0waVcadAaIPqtrtLiEC49F0mAuHSM77oHUQg2NEBIhDsgORcFhEIznGzp5QIBHsoOZ9HBILz7OwtKQLBXlKXKJ8IBDvAikCwA5JzWUQgOMfNnlIiEOyh5HweEQjOs7O3pAgEe0ldonwiEOwAKwLBDkjOZRGB4Bw3e0qJQLCHkvN5RCA4z87ekl4tEJKSUxHX94S9LC5LvrMZCUj/ZZjL9+4yZi+iuzceMezyBS/BBYpOdMTJLYMdv7KLAiFibF90f+pWx+/rAyVcFQhKrZqPWlbpGl8r6wPY7Gpi1Yk8pD7+vl15L5SJjrAe9vW8hrdbunQxLytcuuc4js13/cyQDnddjYRbR3sZnbZpzuGnPkTl0ey2udgFrkLBrg4HBdNrNG1JCeuYxUB0ssOVDIgoQ78pmxwu584CaT+NQnmu7UVNrqTA6LPoe717Tt9ztp6pP4xDVVGY48VdFAhKtQr9Fj0IXULja24dr4R3ltjzx1dhKm98g6Mzrex4z0TE3zTSmaJeXebEKytQvOWQy23sMGMCEqbJ20ibgzz+6gqUbHadr3+nGPR78z4o6l4d7nKHeckFKo9kgSwI9e+suFTNumwCgeWFn5n/eWKymJUHsdVcAAAK4ElEQVSwGNvuJTce3VaTEhaTk211USBQ3yvUKtCLhSQ1EjDX6GE1ts2zQS8Vki/YRrZWkxnmurc2ujzmFAr4Belsb22TxATalC/NE1o1/5NUR8AKmKtqYLU4vLZ3GOFlFQgO11YKeB6BNhAIntcoqZEQEAJCQAiIQJAx4BoBEQiu8ZPSQkAICAEPJSACwUM7pt1USwRCu+kqqagQEAJCwBECIhAcoSV5zycgAkFGhRAQAkLAKwmIQPDKbnVjo0QguBG23EoICAEh4D4CIhDcx9o77yQCwTv7VVolBISAzxMQgeDzQ8BFACIQXAQoxYWAEBACnklABIJn9kv7qZUIhPbTV1JTISAEhIADBEQgOABLsrZAQASCDAshIASEgFcSEIHgld3qxkaJQHAjbLmVEBACQsB9BEQguI+1d95JBIJ39qu0SggIAZ8nIALB54eAiwBEILgIUIoLASEgBDyTgAgEz+yX9lMrEQjtp6+kpkJACAgBBwiIQHAAlmRtgYAIBBkWQkAICAGvJCACwSu71Y2NEoHQtrAVKihUfrCa9G17XQevplBpuITVbLC/pNIPCiXVvdb+MpJTCAgBjyUgAsFju6adVEwEAlTBCfAL7QoolDBX5cNUcszBzmt8DP0iekDlHwV9zjYHr9G22dURPfmCxpKjdl9YFZQAVVA8DPm77S5zaTI69bV2aaoiVxUC7ZiAU0+SQkHFKClhHbMYiE5uxwik6i4R8HGB4Bd+BWhiNBYf5lW/yj8aprITNqQqLfgBM9dZA5Rq+gVQqqGwAlaLnlfcmrihMJZlwFJdWFdOA5hqAFrFmw1QaIJhNVTUPXIawGoErFYWJPzPYuK/KVRaWGHlMrb728rbHlU/Wxm6PxRQaENhNZRTJc7pfqU6GBZTDdTh3c4RCAp1oM0ywOUbr63QhMJqrODrnCcQFAoo/AJhNVY2KWMkIuf+Tlws1M4QW52ohuogWE1VtjrXJa6Dsfq88pyX6kDVCkqEMiAaxuJUwEz3kiQEhICzBEQgOEtOytkI+LRAUECXlALDmb2w6MvOGRGamEEsEAALrGYTjAX7WAhAoeIJU+kfCWNJOhR+/lCHdITFVA1zRTaLDHVUb+izf4Wu0wSYqwuhoAlUpYEh9zdoO46DsWA/308V3AGqgCgYCvZDEzuYBTtdH2Y9DAX7uLw+awusFiNsFgErTBU5XA9LZT4UunAYi1IbJnB1zCAo1QG2SdhPC2ttKUxlp6GJGwJzTTGUukiYyzNgrsyDrtN4WAyVLBqUulC2Gii1YQ0WBL/QLlAFJ8JiqIBSEwxD/i5o4pJhOLOPJ3OayFWBMTCVnoQmlq5fBIWfzjak6P4KFZS6cLakkLtDHTOQBZQyIIYnf6qbLmk8zPqzUEAFKJVcB03sMCjUWlhqS2EsPChPqRAQAi4QEIHgAjwp6uMCQaGEtmMK9Jm/nDMUaKJTxw6BIWc7oCARcRVqszaDRANN+DTJ0irXL6ybbdKPvxLG0pOw1BRBqYs4RyDos7dyHABN9rUZG1oUCMaiw9B2GIPazI284tZ2GAVD/h5oE0eeJxDIBUL1MBSlwlJ71rYat1qhUOmgTRyB2qwtbCWgSdtqrOKJm6wkNLErVGoWIiQ6SCBQm8h6QcLCUlPM5djFcIbuPYaFC1kEVCGdoPKP4DZqIvtAn7sd6qg+sBprYKktgSZ2EGqztnJ5mvRJTJCwILb0M7lvrKZqFjdKbQiLHX32Fs5bm031tTT0gzIwFqqAWBgLD8jjKQSEgIsERCC4CNDni4sFAfr83Y0uAFrH6yKhCunIVgNKPLnXC4TKHF6BkwWBJ95WBAKJgoZrtCYQ6vLSJG4qy4ImdsB5AsFYcgyqwHioAmNBJnuazK2mGjbpa+OGoDabJmoL1JG9+f9kJfAL7warvrRhqBsKDtoEQt391NEDYNGfBSz1AmEfCxZD7g5YzbUsGsj9QCJD13EsWwU0CSN5kifrAlkH9CQ2iBWJKaqDxWS7xpl98AvrCqXan+tpM1pZYCw6ZBMIJIpghTbpKuizNrGFQQSCz38rCYA2IiACoY1A+uxlfFogAH4RPaFin/cRm7k9IBrm8kxoO4y1CQSFEpqYgbwyp4nb3IJA0MQNY+uBuTKXJ+qmLobzBELCCJgq82GpPgN1ZC+eHA2FqdDxZLqXf6f71GZuYiuGRV8KS2WubcVuqICpLANQqmwiIKofixWqE5n0dUnjYMjfC6vFAE3sUFiqC2CuyoMmZjD0+bsa4hWonSQQyHJBrg6yIJjLTnFbya1A9eDyVXlsMfGL7AWroRKms+nQJIzgn6me5N5QakNbFQiqoFgoNaHM2JYUbFFoSSAo1MFskSDLgy1eQZIQEALOEhCB4Cw5KWcj4OMCgRDQ6tg2WQOmqgKYig7VTXyDbBN4/h7285MQaEkgUGCgOm4wxyCQ7/xiAoHuQStrcguYKnOg0oXZzP/qQGjjh8FqtTbEKPCk33EMLBYLrOROsBhgKs+EJv5KDo6kuAKKZ2hI6kDo4pNhpniKusmVdjGQRUQd0x8KhZIFBsUNkEAwFB6CJrofTOVZPPlTIKSGypdlwVyZzQKF6tfwd7qRUm1ztbBQyrVLIBA7VUhn+IV1IY8NjCUnYK7IbFEgEBd19EAotCEwkPtBkhAQAk4TEIHgNDopKAKh6Rio39nTGHVPK92GiP02Hy4Xurad96SZtskOgcbqXaR8QxlFExdDa/dr/DsJDfhpoAnv0RA74DiW1u7n+BWlhBAQAi0TcOppk22OMpwaCIgFwQcHg4KtHORicCT5RfWBgiwf5ZkcAClJCAgBzyYgAsGz+8fzaycCwfP7SGooBISAEHCCgAgEJ6BJkSYERCDIcBACQkAIeCUBEQhe2a1ubJQIBDfCllsJASEgBNxHQASC+1h7551EIHhnv0qrhIAQ8HkCIhB8fgi4CEAEgosApbgQEAJCwDMJiEDwzH5pP7USgdB++kpqKgSEgBBwgIAIBAdgSdYWCIhAkGEhBISAEPBKAiIQvLJb3dgoEQhuhC23EgJCQAi4j4AIBPex9s47iUDwzn6VVgkBIeDzBEQg+PwQcBGACAQXAUpxISAEhIBnEhCB4Jn90n5qJQKh/fSV1FQICAEh4AABEQgOwJKsLRAggbByZN1Liaz8NkFJQkAICAEh0P4JuCgQFLCOeguIHdH+SUgLnCMgAsE5blJKCAgBIeDhBJwSCNQm2xsdFbCG9wZ63Qt697wkHyRQnQ/FvhfFguCDXS9NFgJCwLsJuCwQ+J33dJW6ZG36i3ez89nW2bq7zpXA/6P/2H4XF4PPDgtpuBAQAl5GwEWBwLaEOiRNVIKXQZLmXIyAiAMZH0JACAgBbyTgtEBgacBuhqZJRII3DpKW23RuMKJYDnyn56WlQkAI+AYBlwRCPaLzhYJvwJNWiktBxoAQEAJCwFsJtIlA8FY40i4hIASEgBAQAr5KQASCr/a8tFsICAEhIASEwEUIiECQ4SEEhIAQEAJCQAicR0AEggwKISAEhIAQEAJCQASCjAEhIASEgBAQAkKgdQJiQWidkeQQAkJACAgBIeBzBEQg+FyXS4OFgBAQAkJACLROQARC64wkhxAQAkJACAgBnyMgAsHnulwaLASEgBAQAkKgdQIiEFpnJDmEgBAQAkJACPgcAREIPtfl0mAhIASEgBAQAq0TEIHQOiPJIQSEgBAQAkLA5wj8P5Y0RDoIA5/yAAAAAElFTkSuQmCC;" vertex="1" parent="1">
          <mxGeometry x="20" y="30" width="840" height="420" as="geometry" />
        </mxCell>
      </root>
    </mxGraphModel>
  </diagram>
</mxfile>
